<svg version="1.1" viewBox="0.0 0.0 600.0 371.0" fill="none" stroke="none" stroke-linecap="square" stroke-miterlimit="10" width="600" height="371" xmlns:xlink="http://www.w3.org/1999/xlink" xmlns="http://www.w3.org/2000/svg"><path fill="#ffffff" d="M0 0L600.0 0L600.0 371.0L0 371.0L0 0Z" fill-rule="nonzero"/><path stroke="#333333" stroke-width="1.0" stroke-linecap="butt" d="M45.5 332.5L581.5 332.5" fill-rule="nonzero"/><path stroke="#cccccc" stroke-width="1.0" stroke-linecap="butt" d="M45.5 255.5L581.5 255.5" fill-rule="nonzero"/><path stroke="#cccccc" stroke-width="1.0" stroke-linecap="butt" d="M45.5 179.5L581.5 179.5" fill-rule="nonzero"/><path stroke="#cccccc" stroke-width="1.0" stroke-linecap="butt" d="M45.5 102.5L581.5 102.5" fill-rule="nonzero"/><path stroke="#cccccc" stroke-width="1.0" stroke-linecap="butt" d="M45.5 25.5L581.5 25.5" fill-rule="nonzero"/><clipPath id="id_0"><path d="M45.55 25.55L581.45 25.55L581.45 332.45L45.55 332.45L45.55 25.55Z" clip-rule="nonzero"/></clipPath><path stroke="#000000" stroke-width="2.0" stroke-linecap="butt" stroke-opacity="0.0" clip-path="url(#id_0)" d="M273.0 332.0L125.0 332.0L125.0 81.0C125.0 79.89543 125.89543 79.0 127.0 79.0L271.0 79.0C272.10458 79.0 273.0 79.89543 273.0 81.0Z" fill-rule="nonzero"/><path fill="#4285f4" clip-path="url(#id_0)" d="M273.0 332.0L125.0 332.0L125.0 81.0C125.0 79.89543 125.89543 79.0 127.0 79.0L271.0 79.0C272.10458 79.0 273.0 79.89543 273.0 81.0Z" fill-rule="nonzero"/><path stroke="#000000" stroke-width="2.0" stroke-linecap="butt" stroke-opacity="0.0" clip-path="url(#id_0)" d="M502.0 332.0L354.0 332.0L354.0 52.0C354.0 50.89543 354.89542 50.0 356.0 50.0L500.0 50.0C501.10458 50.0 502.0 50.89543 502.0 52.0Z" fill-rule="nonzero"/><path fill="#4285f4" clip-path="url(#id_0)" d="M502.0 332.0L354.0 332.0L354.0 52.0C354.0 50.89543 354.89542 50.0 356.0 50.0L500.0 50.0C501.10458 50.0 502.0 50.89543 502.0 52.0Z" fill-rule="nonzero"/><path fill="#000000" d="M33.05 332.21564Q33.05 330.6844 33.3625 329.7625Q33.675 328.825 34.284374 328.325Q34.909374 327.825 35.846874 327.825Q36.534374 327.825 37.05 328.10626Q37.58125 328.3875 37.925 328.91876Q38.26875 329.4344 38.45625 330.1844Q38.64375 330.9344 38.64375 332.21564Q38.64375 333.73126 38.33125 334.65314Q38.034374 335.575 37.409374 336.09064Q36.8 336.59064 35.846874 336.59064Q34.6125 336.59064 33.89375 335.7Q33.05 334.6375 33.05 332.21564ZM34.128124 332.21564Q34.128124 334.325 34.628124 335.02814Q35.128124 335.73126 35.846874 335.73126Q36.58125 335.73126 37.065624 335.02814Q37.565624 334.325 37.565624 332.21564Q37.565624 330.09064 37.065624 329.40314Q36.58125 328.7 35.83125 328.7Q35.1125 328.7 34.675 329.3094Q34.128124 330.09064 34.128124 332.21564Z" fill-rule="nonzero"/><path fill="#000000" d="M38.596874 258.70938L38.596874 259.725L32.909374 259.725Q32.909374 259.35 33.034374 258.99063Q33.253124 258.4125 33.721874 257.85Q34.20625 257.2875 35.1125 256.55313Q36.51875 255.39688 37.003124 254.725Q37.503124 254.05313 37.503124 253.45938Q37.503124 252.83438 37.05 252.4125Q36.596874 251.975 35.878124 251.975Q35.1125 251.975 34.659374 252.42813Q34.20625 252.88126 34.190624 253.69376L33.1125 253.58438Q33.221874 252.36563 33.940624 251.74063Q34.675 251.1 35.909374 251.1Q37.14375 251.1 37.8625 251.7875Q38.58125 252.475 38.58125 253.49063Q38.58125 254.00626 38.3625 254.50626Q38.159374 254.99063 37.659374 255.55313Q37.175 256.1 36.05 257.05313Q35.096874 257.85 34.815624 258.14688Q34.55 258.42813 34.378124 258.70938L38.596874 258.70938Z" fill-rule="nonzero"/><path fill="#000000" d="M36.425 183.0L36.425 180.9375L32.70625 180.9375L32.70625 179.96875L36.628124 174.40625L37.4875 174.40625L37.4875 179.96875L38.64375 179.96875L38.64375 180.9375L37.4875 180.9375L37.4875 183.0L36.425 183.0ZM36.425 179.96875L36.425 176.10938L33.7375 179.96875L36.425 179.96875Z" fill-rule="nonzero"/><path fill="#000000" d="M38.51875 99.79063L37.471874 99.86875Q37.33125 99.24375 37.08125 98.9625Q36.64375 98.50938 36.01875 98.50938Q35.51875 98.50938 35.128124 98.79063Q34.64375 99.16563 34.346874 99.86875Q34.065624 100.55625 34.05 101.8375Q34.425 101.25938 34.971874 100.97813Q35.534374 100.69688 36.14375 100.69688Q37.190624 100.69688 37.925 101.47813Q38.675 102.25938 38.675 103.47813Q38.675 104.29063 38.315624 104.99375Q37.971874 105.68125 37.3625 106.05625Q36.753124 106.41563 35.9875 106.41563Q34.659374 106.41563 33.83125 105.44688Q33.003124 104.47813 33.003124 102.25938Q33.003124 99.75938 33.925 98.63438Q34.721874 97.65 36.08125 97.65Q37.096874 97.65 37.7375 98.22813Q38.39375 98.79063 38.51875 99.79063ZM34.221874 103.49375Q34.221874 104.04063 34.440624 104.54063Q34.675 105.025 35.08125 105.29063Q35.503124 105.55625 35.971874 105.55625Q36.628124 105.55625 37.1125 105.025Q37.596874 104.47813 37.596874 103.55625Q37.596874 102.66563 37.1125 102.15Q36.64375 101.63438 35.925 101.63438Q35.20625 101.63438 34.70625 102.15Q34.221874 102.66563 34.221874 103.49375Z" fill-rule="nonzero"/><path fill="#000000" d="M34.675 24.89375Q34.01875 24.64375 33.690624 24.20625Q33.378124 23.753124 33.378124 23.14375Q33.378124 22.20625 34.05 21.565624Q34.7375 20.925 35.846874 20.925Q36.971874 20.925 37.659374 21.58125Q38.346874 22.2375 38.346874 23.175Q38.346874 23.76875 38.034374 24.20625Q37.721874 24.64375 37.08125 24.89375Q37.878124 25.14375 38.284374 25.721874Q38.690624 26.3 38.690624 27.096874Q38.690624 28.190624 37.909374 28.940624Q37.14375 29.690624 35.8625 29.690624Q34.596874 29.690624 33.815624 28.940624Q33.034374 28.190624 33.034374 27.065624Q33.034374 26.221874 33.45625 25.659374Q33.89375 25.096874 34.675 24.89375ZM34.45625 23.096874Q34.45625 23.70625 34.846874 24.096874Q35.253124 24.4875 35.878124 24.4875Q36.4875 24.4875 36.878124 24.1125Q37.26875 23.721874 37.26875 23.159374Q37.26875 22.58125 36.8625 22.190624Q36.45625 21.784374 35.8625 21.784374Q35.253124 21.784374 34.846874 22.175Q34.45625 22.565624 34.45625 23.096874ZM34.128124 27.065624Q34.128124 27.51875 34.33125 27.940624Q34.55 28.3625 34.971874 28.596874Q35.39375 28.83125 35.878124 28.83125Q36.628124 28.83125 37.1125 28.346874Q37.6125 27.8625 37.6125 27.1125Q37.6125 26.346874 37.1125 25.846874Q36.6125 25.346874 35.846874 25.346874Q35.096874 25.346874 34.6125 25.846874Q34.128124 26.33125 34.128124 27.065624Z" fill-rule="nonzero"/><path fill="#000000" d="M186.91623 348.52814Q187.7131 349.075 188.36935 349.325L188.04123 350.1219Q187.11935 349.77814 186.19748 349.0594Q185.24435 349.59064 184.0881 349.59064Q182.91623 349.59064 181.9631 349.02814Q181.0256 348.46564 180.50998 347.45Q179.99435 346.4344 179.99435 345.15314Q179.99435 343.8875 180.50998 342.84064Q181.0256 341.79376 181.97873 341.2469Q182.93185 340.7 184.10373 340.7Q185.29123 340.7 186.24435 341.27814Q187.2131 341.84064 187.7131 342.85626Q188.2131 343.8719 188.2131 345.15314Q188.2131 346.21564 187.88498 347.0594Q187.57248 347.90314 186.91623 348.52814ZM184.41623 347.075Q185.4006 347.35626 186.04123 347.90314Q187.04123 346.98126 187.04123 345.15314Q187.04123 344.10626 186.68185 343.325Q186.32248 342.54376 185.63498 342.1219Q184.9631 341.6844 184.11935 341.6844Q182.8381 341.6844 181.99435 342.5594Q181.16623 343.41876 181.16623 345.15314Q181.16623 346.825 181.99435 347.73126Q182.82248 348.6219 184.11935 348.6219Q184.72873 348.6219 185.25998 348.3875Q184.72873 348.04376 184.13498 347.90314L184.41623 347.075ZM193.35373 349.45L193.35373 348.52814Q192.61935 349.59064 191.36935 349.59064Q190.82248 349.59064 190.3381 349.3875Q189.86935 349.16876 189.63498 348.85626Q189.4006 348.52814 189.30685 348.0594Q189.24435 347.7625 189.24435 347.075L189.24435 343.23126L190.30685 343.23126L190.30685 346.6844Q190.30685 347.4969 190.36935 347.79376Q190.4631 348.2 190.7756 348.45Q191.10373 348.6844 191.5881 348.6844Q192.05685 348.6844 192.4631 348.45Q192.88498 348.2 193.05685 347.77814Q193.24435 347.35626 193.24435 346.5594L193.24435 343.23126L194.29123 343.23126L194.29123 349.45L193.35373 349.45ZM200.3381 348.6844Q199.74435 349.1844 199.19748 349.3875Q198.66623 349.59064 198.04123 349.59064Q197.00998 349.59064 196.4631 349.09064Q195.91623 348.59064 195.91623 347.8094Q195.91623 347.35626 196.11935 346.98126Q196.32248 346.59064 196.66623 346.3719Q197.00998 346.1375 197.43185 346.02814Q197.72873 345.9344 198.36935 345.85626Q199.63498 345.71564 200.24435 345.4969Q200.24435 345.27814 200.24435 345.23126Q200.24435 344.575 199.94748 344.3094Q199.54123 343.96564 198.74435 343.96564Q198.00998 343.96564 197.6506 344.23126Q197.29123 344.48126 197.11935 345.1375L196.0881 344.9969Q196.22873 344.34064 196.55685 343.9344Q196.88498 343.52814 197.49435 343.3094Q198.10373 343.09064 198.9006 343.09064Q199.69748 343.09064 200.19748 343.27814Q200.69748 343.46564 200.93185 343.7469Q201.16623 344.02814 201.25998 344.46564Q201.30685 344.73126 201.30685 345.4344L201.30685 346.84064Q201.30685 348.3094 201.36935 348.7Q201.44748 349.09064 201.6506 349.45L200.54123 349.45Q200.38498 349.1219 200.3381 348.6844ZM200.24435 346.325Q199.66623 346.5594 198.5256 346.73126Q197.86935 346.825 197.60373 346.95Q197.3381 347.0594 197.18185 347.27814Q197.04123 347.4969 197.04123 347.77814Q197.04123 348.2 197.35373 348.48126Q197.68185 348.7625 198.29123 348.7625Q198.9006 348.7625 199.36935 348.4969Q199.85373 348.23126 200.07248 347.7625Q200.24435 347.40314 200.24435 346.71564L200.24435 346.325ZM203.24435 349.45L203.24435 340.85626L204.30685 340.85626L204.30685 349.45L203.24435 349.45ZM206.2756 342.075L206.2756 340.85626L207.3381 340.85626L207.3381 342.075L206.2756 342.075ZM206.2756 349.45L206.2756 343.23126L207.3381 343.23126L207.3381 349.45L206.2756 349.45ZM211.57248 348.5125L211.72873 349.4344Q211.2756 349.52814 210.93185 349.52814Q210.35373 349.52814 210.04123 349.35626Q209.72873 349.16876 209.5881 348.8719Q209.4631 348.575 209.4631 347.6219L209.4631 344.04376L208.69748 344.04376L208.69748 343.23126L209.4631 343.23126L209.4631 341.6844L210.50998 341.0594L210.50998 343.23126L211.57248 343.23126L211.57248 344.04376L210.50998 344.04376L210.50998 347.6844Q210.50998 348.1375 210.55685 348.2625Q210.61935 348.3875 210.74435 348.46564Q210.86935 348.54376 211.10373 348.54376Q211.29123 348.54376 211.57248 348.5125ZM212.22873 351.84064L212.10373 350.85626Q212.44748 350.95 212.7131 350.95Q213.05685 350.95 213.25998 350.825Q213.47873 350.71564 213.61935 350.5125Q213.7131 350.34064 213.94748 349.71564Q213.9631 349.6375 214.04123 349.46564L211.66623 343.23126L212.80685 343.23126L214.10373 346.825Q214.35373 347.5125 214.55685 348.27814Q214.74435 347.54376 214.99435 346.85626L216.32248 343.23126L217.36935 343.23126L215.00998 349.5594Q214.61935 350.575 214.41623 350.96564Q214.13498 351.4969 213.75998 351.73126Q213.4006 351.98126 212.9006 351.98126Q212.60373 351.98126 212.22873 351.84064ZM217.55685 344.4344L217.55685 343.23126L218.75998 343.23126L218.75998 344.4344L217.55685 344.4344ZM217.55685 349.45L217.55685 348.2469L218.75998 348.2469L218.75998 349.45L217.55685 349.45Z" fill-rule="nonzero"/><path fill="#000000" d="M407.06815 346.6844L408.13065 346.59064Q408.20877 347.2469 408.49002 347.65314Q408.77127 348.0594 409.3494 348.325Q409.94315 348.575 410.67752 348.575Q411.31815 348.575 411.81815 348.3875Q412.31815 348.1844 412.55252 347.85626Q412.80252 347.5125 412.80252 347.1219Q412.80252 346.71564 412.56815 346.41876Q412.33377 346.10626 411.80252 345.90314Q411.44315 345.7625 410.25565 345.48126Q409.08377 345.2 408.61502 344.95Q407.99002 344.6219 407.69315 344.15314Q407.39627 343.66876 407.39627 343.075Q407.39627 342.4344 407.75565 341.8719Q408.13065 341.29376 408.83377 341.0125Q409.55252 340.71564 410.4119 340.71564Q411.36502 340.71564 412.0994 341.02814Q412.83377 341.325 413.2244 341.9344Q413.61502 342.52814 413.64627 343.27814L412.55252 343.35626Q412.45877 342.54376 411.94315 342.1375Q411.44315 341.71564 410.45877 341.71564Q409.42752 341.71564 408.95877 342.09064Q408.49002 342.46564 408.49002 342.9969Q408.49002 343.46564 408.81815 343.7625Q409.14627 344.0594 410.52127 344.3719Q411.9119 344.6844 412.42752 344.91876Q413.17752 345.27814 413.5369 345.8094Q413.89627 346.325 413.89627 347.02814Q413.89627 347.71564 413.50565 348.325Q413.11502 348.91876 412.38065 349.2625Q411.64627 349.59064 410.7244 349.59064Q409.55252 349.59064 408.75565 349.2625Q407.9744 348.91876 407.52127 348.23126Q407.08377 347.54376 407.06815 346.6844ZM414.50565 349.45L417.80252 340.85626L419.02127 340.85626L422.5369 349.45L421.25565 349.45L420.24002 346.84064L416.6619 346.84064L415.70877 349.45L414.50565 349.45ZM416.99002 345.91876L419.89627 345.91876L419.00565 343.54376Q418.58377 342.46564 418.39627 341.7625Q418.2244 342.59064 417.92752 343.40314L416.99002 345.91876ZM424.63065 349.45L424.63065 341.8719L421.80252 341.8719L421.80252 340.85626L428.61502 340.85626L428.61502 341.8719L425.77127 341.8719L425.77127 349.45L424.63065 349.45ZM429.4744 349.45L429.4744 340.85626L435.67752 340.85626L435.67752 341.8719L430.61502 341.8719L430.61502 344.4969L435.36502 344.4969L435.36502 345.5125L430.61502 345.5125L430.61502 348.4344L435.88065 348.4344L435.88065 349.45L429.4744 349.45ZM437.44315 349.45L437.44315 340.85626L440.4119 340.85626Q441.4119 340.85626 441.94315 340.98126Q442.67752 341.15314 443.19315 341.59064Q443.88065 342.16876 444.20877 343.075Q444.55252 343.96564 444.55252 345.10626Q444.55252 346.09064 444.31815 346.84064Q444.0994 347.59064 443.74002 348.09064Q443.38065 348.59064 442.94315 348.8719Q442.52127 349.15314 441.92752 349.3094Q441.33377 349.45 440.55252 349.45L437.44315 349.45ZM438.58377 348.4344L440.4119 348.4344Q441.27127 348.4344 441.75565 348.27814Q442.24002 348.1219 442.52127 347.825Q442.92752 347.4344 443.14627 346.7469Q443.38065 346.0594 443.38065 345.09064Q443.38065 343.7469 442.92752 343.02814Q442.49002 342.29376 441.86502 342.04376Q441.39627 341.8719 440.39627 341.8719L438.58377 341.8719L438.58377 348.4344ZM446.5994 344.4344L446.5994 343.23126L447.80252 343.23126L447.80252 344.4344L446.5994 344.4344ZM446.5994 349.45L446.5994 348.2469L447.80252 348.2469L447.80252 349.45L446.5994 349.45Z" fill-rule="nonzero"/></svg>