<svg width="2110" height="1660" xmlns="http://www.w3.org/2000/svg" xmlns:xlink="http://www.w3.org/1999/xlink" xml:space="preserve" overflow="hidden"><defs><filter id="fx0" x="-10%" y="-10%" width="120%" height="120%" filterUnits="userSpaceOnUse" primitiveUnits="userSpaceOnUse"><feComponentTransfer color-interpolation-filters="sRGB"><feFuncR type="discrete" tableValues="0 0"/><feFuncG type="discrete" tableValues="0 0"/><feFuncB type="discrete" tableValues="0 0"/><feFuncA type="linear" slope="0.631373" intercept="0"/></feComponentTransfer><feGaussianBlur stdDeviation="6.875 6.875"/></filter><clipPath id="clip1"><rect x="3034" y="590" width="2110" height="1660"/></clipPath><clipPath id="clip2"><rect x="3155" y="763" width="1940" height="1360"/></clipPath></defs><g clip-path="url(#clip1)" transform="translate(-3034 -590)"><rect x="3035" y="591" width="2107" height="1657" fill="#FFFFFF"/><g><path d="M3155.5 1925.56 5092.5 1925.56M3155.5 1732.56 5092.5 1732.56M3155.5 1538.55 5092.5 1538.55M3155.5 1344.54 5092.5 1344.54M3155.5 1150.54 5092.5 1150.54M3155.5 957.532 5092.5 957.532M3155.5 763.5 5092.5 763.5" stroke="#D9D9D9" stroke-width="3.4375" stroke-linejoin="round" stroke-miterlimit="10" fill="none"/></g><g clip-path="url(#clip2)"><g filter="url(#fx0)" transform="translate(3375 993)"><g><path d="M22.1115 748.932 507.127 748.932 507.127 1133.87 22.1115 1133.87ZM991.143 21.9081 1475.16 21.9081 1475.16 1133.87 991.143 1133.87Z" fill="#333F50"/></g></g></g><g><path d="M3397.11 1735.06 3882.13 1735.06 3882.13 2120 3397.11 2120ZM4366.14 1008.03 4850.16 1008.03 4850.16 2120 4366.14 2120Z" fill="#333F50"/></g><g><path d="M3155.5 2119.5 5092.5 2119.5" stroke="#D9D9D9" stroke-width="4.58333" stroke-linejoin="round" stroke-miterlimit="10" fill="none" fill-rule="evenodd"/></g><g><text fill="#595959" font-family="Calibri,Calibri_MSFontService,sans-serif" font-weight="400" font-size="41" transform="matrix(1 0 0 1 3065.1 2131)">6,2</text></g><g><text fill="#595959" font-family="Calibri,Calibri_MSFontService,sans-serif" font-weight="400" font-size="41" transform="matrix(1 0 0 1 3065.1 1938)">6,4</text></g><g><text fill="#595959" font-family="Calibri,Calibri_MSFontService,sans-serif" font-weight="400" font-size="41" transform="matrix(1 0 0 1 3065.1 1744)">6,6</text></g><g><text fill="#595959" font-family="Calibri,Calibri_MSFontService,sans-serif" font-weight="400" font-size="41" transform="matrix(1 0 0 1 3065.1 1550)">6,8</text></g><g><text fill="#595959" font-family="Calibri,Calibri_MSFontService,sans-serif" font-weight="400" font-size="41" transform="matrix(1 0 0 1 3096.29 1356)">7</text></g><g><text fill="#595959" font-family="Calibri,Calibri_MSFontService,sans-serif" font-weight="400" font-size="41" transform="matrix(1 0 0 1 3065.1 1162)">7,2</text></g><g><text fill="#595959" font-family="Calibri,Calibri_MSFontService,sans-serif" font-weight="400" font-size="41" transform="matrix(1 0 0 1 3065.1 969)">7,4</text></g><g><text fill="#595959" font-family="Calibri,Calibri_MSFontService,sans-serif" font-weight="400" font-size="41" transform="matrix(1 0 0 1 3065.1 775)">7,6</text></g><g><text fill="#595959" font-family="Calibri,Calibri_MSFontService,sans-serif" font-weight="700" font-size="48" transform="matrix(1 0 0 1 3477.19 2196)">Self-Assessment</text></g><g><text fill="#595959" font-family="Calibri,Calibri_MSFontService,sans-serif" font-weight="700" font-size="48" transform="matrix(1 0 0 1 4426.22 2196)">Total SATED Score</text></g><g><text fill="#595959" font-family="Calibri,Calibri_MSFontService,sans-serif" font-weight="700" font-size="73" transform="matrix(1 0 0 1 3755.23 696)">Quality of Sleep 0 </text></g><g><text fill="#595959" font-family="Calibri,Calibri_MSFontService,sans-serif" font-weight="700" font-size="73" transform="matrix(1 0 0 1 4309.21 696)">-</text></g><g><text fill="#595959" font-family="Calibri,Calibri_MSFontService,sans-serif" font-weight="700" font-size="73" transform="matrix(1 0 0 1 4348.24 696)">10</text></g><rect x="3035.5" y="591.5" width="2107" height="1657" stroke="#D9D9D9" stroke-width="3.4375" stroke-linejoin="round" stroke-miterlimit="10" fill="none"/></g></svg>