<svg width="2527" height="1557" xmlns="http://www.w3.org/2000/svg" xmlns:xlink="http://www.w3.org/1999/xlink" xml:space="preserve" overflow="hidden"><defs><filter id="fx0" x="-10%" y="-10%" width="120%" height="120%" filterUnits="userSpaceOnUse" primitiveUnits="userSpaceOnUse"><feComponentTransfer color-interpolation-filters="sRGB"><feFuncR type="discrete" tableValues="0 0"/><feFuncG type="discrete" tableValues="0 0"/><feFuncB type="discrete" tableValues="0 0"/><feFuncA type="linear" slope="0.631373" intercept="0"/></feComponentTransfer><feGaussianBlur stdDeviation="6.875 6.875"/></filter><clipPath id="clip1"><rect x="3454" y="1706" width="2527" height="1557"/></clipPath><clipPath id="clip2"><rect x="3574" y="2033" width="2357" height="1004"/></clipPath></defs><g clip-path="url(#clip1)" transform="translate(-3454 -1706)"><rect x="3455" y="1707" width="2524" height="1554" fill="#FFFFFF"/><g><path d="M3574.5 2934.6 5928.5 2934.6M3574.5 2834.59 5928.5 2834.59M3574.5 2734.59 5928.5 2734.59M3574.5 2634.59 5928.5 2634.59M3574.5 2534.58 5928.5 2534.58M3574.5 2434.58 5928.5 2434.58M3574.5 2333.58 5928.5 2333.58M3574.5 2233.57 5928.5 2233.57M3574.5 2133.57 5928.5 2133.57M3574.5 2033.5 5928.5 2033.5" stroke="#D9D9D9" stroke-width="3.4375" stroke-linejoin="round" stroke-miterlimit="10" fill="none"/></g><g clip-path="url(#clip2)"><g filter="url(#fx0)" transform="translate(3670 2158)"><g><path d="M22.1211 250.954 258.129 250.954 258.129 882.875 22.1211 882.875ZM493.137 94.9487 728.144 94.9487 728.144 882.875 493.137 882.875ZM964.152 21.9463 1199.16 21.9463 1199.16 882.875 964.152 882.875ZM1435.17 295.955 1670.18 295.955 1670.18 882.875 1435.17 882.875ZM1905.18 76.9481 2141.19 76.9481 2141.19 882.875 1905.18 882.875Z" fill="#333F50"/></g></g></g><g><path d="M3692.12 2402.08 3928.13 2402.08 3928.13 3034 3692.12 3034ZM4163.14 2246.07 4398.14 2246.07 4398.14 3034 4163.14 3034ZM4634.15 2173.07 4869.16 2173.07 4869.16 3034 4634.15 3034ZM5105.17 2447.08 5340.18 2447.08 5340.18 3034 5105.17 3034ZM5575.18 2228.07 5811.19 2228.07 5811.19 3034 5575.18 3034Z" fill="#333F50"/></g><g><path d="M3574.5 3034.5 5928.5 3034.5" stroke="#D9D9D9" stroke-width="4.58333" stroke-linejoin="round" stroke-miterlimit="10" fill="none" fill-rule="evenodd"/></g><g><text fill="#595959" font-family="Calibri,Calibri_MSFontService,sans-serif" font-weight="400" font-size="41" transform="matrix(1 0 0 1 3515.67 3046)">0</text></g><g><text fill="#595959" font-family="Calibri,Calibri_MSFontService,sans-serif" font-weight="400" font-size="41" transform="matrix(1 0 0 1 3484.48 2946)">0,2</text></g><g><text fill="#595959" font-family="Calibri,Calibri_MSFontService,sans-serif" font-weight="400" font-size="41" transform="matrix(1 0 0 1 3484.48 2846)">0,4</text></g><g><text fill="#595959" font-family="Calibri,Calibri_MSFontService,sans-serif" font-weight="400" font-size="41" transform="matrix(1 0 0 1 3484.48 2746)">0,6</text></g><g><text fill="#595959" font-family="Calibri,Calibri_MSFontService,sans-serif" font-weight="400" font-size="41" transform="matrix(1 0 0 1 3484.48 2646)">0,8</text></g><g><text fill="#595959" font-family="Calibri,Calibri_MSFontService,sans-serif" font-weight="400" font-size="41" transform="matrix(1 0 0 1 3515.67 2546)">1</text></g><g><text fill="#595959" font-family="Calibri,Calibri_MSFontService,sans-serif" font-weight="400" font-size="41" transform="matrix(1 0 0 1 3484.48 2446)">1,2</text></g><g><text fill="#595959" font-family="Calibri,Calibri_MSFontService,sans-serif" font-weight="400" font-size="41" transform="matrix(1 0 0 1 3484.48 2346)">1,4</text></g><g><text fill="#595959" font-family="Calibri,Calibri_MSFontService,sans-serif" font-weight="400" font-size="41" transform="matrix(1 0 0 1 3484.48 2246)">1,6</text></g><g><text fill="#595959" font-family="Calibri,Calibri_MSFontService,sans-serif" font-weight="400" font-size="41" transform="matrix(1 0 0 1 3484.48 2146)">1,8</text></g><g><text fill="#595959" font-family="Calibri,Calibri_MSFontService,sans-serif" font-weight="400" font-size="41" transform="matrix(1 0 0 1 3515.67 2045)">2</text></g><g><text fill="#595959" font-family="Calibri,Calibri_MSFontService,sans-serif" font-weight="700" font-size="46" transform="matrix(1 0 0 1 3602.82 3107)">Are you satisfied with</text></g><g><text fill="#595959" font-family="Calibri,Calibri_MSFontService,sans-serif" font-weight="700" font-size="46" transform="matrix(1 0 0 1 3700.65 3163)">your sleep?</text></g><g><text fill="#595959" font-family="Calibri,Calibri_MSFontService,sans-serif" font-weight="700" font-size="46" transform="matrix(1 0 0 1 4073.96 3107)">Do you stay awake all</text></g><g><text fill="#595959" font-family="Calibri,Calibri_MSFontService,sans-serif" font-weight="700" font-size="46" transform="matrix(1 0 0 1 4087.52 3163)">day without dozing?</text></g><g><text fill="#595959" font-family="Calibri,Calibri_MSFontService,sans-serif" font-weight="700" font-size="46" transform="matrix(1 0 0 1 4517.16 3107)">Are you asleep (or trying</text></g><g><text fill="#595959" font-family="Calibri,Calibri_MSFontService,sans-serif" font-weight="700" font-size="46" transform="matrix(1 0 0 1 4533.21 3163)">to sleep) between 2:00</text></g><g><text fill="#595959" font-family="Calibri,Calibri_MSFontService,sans-serif" font-weight="700" font-size="46" transform="matrix(1 0 0 1 4564.07 3219)">a.m. and 4:00 a.m.?</text></g><g><text fill="#595959" font-family="Calibri,Calibri_MSFontService,sans-serif" font-weight="700" font-size="46" transform="matrix(1 0 0 1 5002.62 3107)">Do you spend less than</text></g><g><text fill="#595959" font-family="Calibri,Calibri_MSFontService,sans-serif" font-weight="700" font-size="46" transform="matrix(1 0 0 1 5024.69 3163)">30 minutes awake at</text></g><g><text fill="#595959" font-family="Calibri,Calibri_MSFontService,sans-serif" font-weight="700" font-size="46" transform="matrix(1 0 0 1 5162.79 3219)">night?</text></g><g><text fill="#595959" font-family="Calibri,Calibri_MSFontService,sans-serif" font-weight="700" font-size="46" transform="matrix(1 0 0 1 5464.24 3107)">Do you sleep between 6</text></g><g><text fill="#595959" font-family="Calibri,Calibri_MSFontService,sans-serif" font-weight="700" font-size="46" transform="matrix(1 0 0 1 5493.68 3163)">and 8 hours per day?</text></g><g><text fill="#595959" font-family="Calibri,Calibri_MSFontService,sans-serif" font-weight="700" font-size="64" transform="matrix(1 0 0 1 4450.1 1803)">0 = Rarely / Never</text></g><g><text fill="#595959" font-family="Calibri,Calibri_MSFontService,sans-serif" font-weight="700" font-size="64" transform="matrix(1 0 0 1 4450.1 1881)">1 = Sometimes</text></g><g><text fill="#595959" font-family="Calibri,Calibri_MSFontService,sans-serif" font-weight="700" font-size="64" transform="matrix(1 0 0 1 4450.1 1960)">2 = Usually / Always</text></g><rect x="3455.5" y="1707.5" width="2524" height="1554" stroke="#D9D9D9" stroke-width="3.4375" stroke-linejoin="round" stroke-miterlimit="10" fill="none"/></g></svg>